#N canvas -8 -8 1904 1026.09 10;
#X obj 97 420 dac~;
#X obj 130 420 writesf~ 2;
#X obj 88 390 *~;
#X obj 112 390 hsl 128 15 0 1 0 0 empty empty empty -2 -8 0 10 -262144
-1 -1 8900 1;
#X obj 58 390 *~;
#X obj 5 13 env~;
#X obj 5 32 - 100;
#X obj 5 51 vu 15 120 empty empty -1 -8 0 10 -66577 -1 1 0;
#X obj 58 420 s~ vu;
#X obj 5 -6 r~ vu;
#X obj 47 14 readsf~;
#X obj 97 15 bng 15 250 50 0 empty empty empty 17 7 0 10 -262144 -1
-1;
#X msg 47 -6 open E:/Vinyl.wav \, 1;
#X obj 47 74 s~ crackle;
#X obj 58 365 r~ crackle;
#X obj 47 34 *~;
#X obj 74 34 hsl 128 15 0 1 0 0 empty empty empty -2 -8 0 10 -262144
-1 -1 0 1;
#X obj 657 322 readsf~;
#X obj 717 374 line;
#X obj 657 348 *~;
#X obj 718 300 bng 15 250 50 0 empty empty empty 17 7 0 10 -262144
-1 -1;
#X msg 717 317 1 500;
#X obj 717 336 delay 500;
#X msg 717 355 0 2500;
#X obj 657 374 freeverb~;
#X floatatom 790 187 7 0 0 0 - - -, f 7;
#X obj 717 223 delay;
#X obj 717 262 delay;
#X obj 774 77 s~ OL;
#X obj 910 84 s~ OR;
#X obj 133 365 r~ OL;
#X obj 178 365 r~ OR;
#X obj 773 33 *~ 0.9;
#X obj 910 38 *~ 0.9;
#X obj 773 -9 r~ DL;
#X obj 910 -8 r~ DR;
#X obj 803 476 s~ DL;
#X obj 693 420 delwrite~ 2S 2000;
#X obj 693 448 delread~ 2S 2000;
#X obj 693 476 s~ DR;
#X obj 773 12 delread~ Left 16000;
#X obj 773 54 delwrite~ Left 16000;
#X obj 910 15 delread~ Right 16000;
#X obj 910 61 delwrite~ Right 16000;
#X obj 717 184 bng 15 250 50 0 empty empty empty 17 7 0 10 -262144
-1 -1;
#X obj 47 54 freeverb~;
#X msg 342 432 open E:/Fripp.wav;
#X msg 375 470 start;
#X msg 396 503 stop;
#X obj 754 -10 vsl 15 128 0 0.9 0 0 empty empty empty 0 -9 0 10 -262144
-1 -1 300 1;
#X obj 750 184 tgl 15 0 empty empty empty 17 7 0 10 -262144 -1 -1 1
1;
#X obj 717 203 spigot;
#X obj 803 420 delwrite~ 2Sw 2000;
#X obj 803 450 delread~ 2Sw 2000;
#X obj 222 15 readsf~;
#X obj 272 16 bng 15 250 50 0 empty empty empty 17 7 0 10 -262144 -1
-1;
#X msg 222 -5 open E:/Samples/Rain.wav;
#X obj 465 270 readsf~;
#X floatatom 780 374 5 0 0 0 - - -, f 5;
#X obj 267 158 readsf~;
#X obj 317 159 bng 15 250 50 0 empty empty empty 17 7 0 10 -262144
-1 -1;
#X obj 266 179 freeverb~;
#X obj 265 204 *~;
#X obj 292 204 hsl 128 15 0 1 0 0 empty empty empty -2 -8 0 10 -262144
-1 -1 0 1;
#X msg 267 138 open E:/ChoStre.wav \, 1;
#X msg 717 243 open E:/Rhodes/C7.wav \, 1;
#X msg 717 281 open E:/Rhodes/A6.wav \, 1;
#X msg 475 208 open E:/Rhodes/F#1.wav \, 1;
#X floatatom 709 142 5 0 0 0 - - -, f 5;
#X connect 2 0 1 1;
#X connect 2 0 0 1;
#X connect 2 0 8 0;
#X connect 3 0 2 1;
#X connect 3 0 4 1;
#X connect 4 0 1 0;
#X connect 4 0 0 0;
#X connect 4 0 8 0;
#X connect 5 0 6 0;
#X connect 6 0 7 0;
#X connect 9 0 5 0;
#X connect 10 0 15 0;
#X connect 10 1 11 0;
#X connect 11 0 12 0;
#X connect 12 0 10 0;
#X connect 14 0 4 0;
#X connect 14 0 2 0;
#X connect 15 0 13 0;
#X connect 15 0 45 0;
#X connect 16 0 15 1;
#X connect 17 0 19 0;
#X connect 18 0 19 1;
#X connect 18 0 58 0;
#X connect 19 0 24 0;
#X connect 20 0 21 0;
#X connect 20 0 22 0;
#X connect 21 0 18 0;
#X connect 22 0 23 0;
#X connect 23 0 18 0;
#X connect 24 0 36 0;
#X connect 24 0 37 0;
#X connect 25 0 26 1;
#X connect 25 0 27 1;
#X connect 26 0 65 0;
#X connect 26 0 20 0;
#X connect 26 0 27 0;
#X connect 27 0 66 0;
#X connect 27 0 20 0;
#X connect 27 0 51 0;
#X connect 30 0 4 0;
#X connect 31 0 2 0;
#X connect 32 0 41 0;
#X connect 33 0 43 0;
#X connect 34 0 41 0;
#X connect 34 0 28 0;
#X connect 35 0 43 0;
#X connect 35 0 29 0;
#X connect 38 0 39 0;
#X connect 38 0 52 0;
#X connect 40 0 32 0;
#X connect 40 0 28 0;
#X connect 42 0 33 0;
#X connect 42 0 29 0;
#X connect 44 0 26 0;
#X connect 45 0 13 0;
#X connect 46 0 1 0;
#X connect 47 0 1 0;
#X connect 48 0 1 0;
#X connect 49 0 33 1;
#X connect 49 0 32 1;
#X connect 49 0 68 0;
#X connect 50 0 51 1;
#X connect 51 0 26 0;
#X connect 53 0 36 0;
#X connect 54 0 15 0;
#X connect 54 1 55 0;
#X connect 55 0 56 0;
#X connect 56 0 54 0;
#X connect 57 0 24 0;
#X connect 59 0 61 0;
#X connect 59 1 60 0;
#X connect 60 0 64 0;
#X connect 61 0 62 0;
#X connect 61 1 62 0;
#X connect 62 0 13 0;
#X connect 63 0 62 1;
#X connect 64 0 59 0;
#X connect 65 0 17 0;
#X connect 66 0 17 0;
#X connect 67 0 57 0;
