#N canvas -8 -8 1904 1026.13 10;
#X obj 17 176 noise~;
#X obj 17 198 bp~;
#X obj 17 220 *~;
#X obj 17 242 *~;
#X obj 560 470 dac~;
#X floatatom 60 176 5 0 0 0 - - -, f 5;
#X floatatom 95 176 5 0 0 0 - - -, f 5;
#X floatatom 60 198 5 0 0 0 - - -, f 5;
#X obj 60 221 tgl 15 0 empty empty empty 17 7 0 10 -262144 -1 -1 1
1;
#X obj 131 175 noise~;
#X obj 131 197 bp~;
#X obj 131 219 *~;
#X obj 131 241 *~;
#X floatatom 174 175 5 0 0 0 - - -, f 5;
#X floatatom 209 175 5 0 0 0 - - -, f 5;
#X floatatom 174 197 5 0 0 0 - - -, f 5;
#X obj 174 220 tgl 15 0 empty empty empty 17 7 0 10 -262144 -1 -1 1
1;
#X obj 16 147 osc~;
#X obj 17 264 *~;
#X obj 131 263 *~;
#X obj 734 291 *~;
#X obj 760 291 *~;
#X obj 417 242 osc~;
#X obj 417 264 *~;
#X obj 452 279 line~;
#X floatatom 417 221 5 0 0 0 - - -, f 5;
#X msg 452 259 1 \, 0 1000;
#X obj 455 201 bng 15 250 50 0 empty empty empty 17 7 0 10 -262144
-1 -1;
#X msg 452 239 0 \, 1 10;
#X obj 452 219 delay 10;
#X obj 599 240 osc~;
#X obj 599 262 *~;
#X obj 638 277 line~;
#X floatatom 599 219 5 0 0 0 - - -, f 5;
#X msg 638 257 1 \, 0 1000;
#X obj 638 199 bng 15 250 50 0 empty empty empty 17 7 0 10 -262144
-1 -1;
#X msg 637 237 0 \, 1 10;
#X obj 638 217 delay 10;
#X obj 488 63 delay;
#X obj 527 63 delay;
#X floatatom 487 41 5 0 0 0 - - -, f 5;
#X floatatom 523 40 6 0 0 0 - - -, f 6;
#X obj 417 155 random 300;
#X obj 417 199 line;
#X msg 417 177 \$1 100;
#X obj 599 153 random 300;
#X obj 599 197 line;
#X msg 599 175 \$1 100;
#X obj 785 293 hsl 128 15 0 1 0 0 empty empty empty -2 -8 0 10 -262144
-1 -1 5200 1;
#X obj 418 333 *~;
#X obj 444 333 *~;
#X obj 469 335 hsl 128 15 0 1 0 0 empty empty empty -2 -8 0 10 -262144
-1 -1 400 1;
#X obj 482 357 *~;
#X obj 508 357 *~;
#X obj 533 359 hsl 128 15 0 1 0 0 empty empty empty -2 -8 0 10 -262144
-1 -1 300 1;
#X obj 418 356 freeverb~;
#X obj 17 286 *~;
#X obj 43 286 *~;
#X obj 68 288 hsl 128 15 0 1 0 0 empty empty empty -2 -8 0 10 -262144
-1 -1 2800 1;
#X obj 385 241 osc~;
#X floatatom 381 201 5 0 0 0 - - -, f 5;
#X obj 391 221 *;
#X obj 566 240 osc~;
#X floatatom 562 200 5 0 0 0 - - -, f 5;
#X obj 572 220 *;
#X floatatom 16 129 5 0 0 0 - - -, f 5;
#X obj 16 110 line;
#X obj 16 72 randomF 1000;
#X obj 16 53 metro;
#X obj 16 36 tgl 15 0 empty empty empty 17 7 0 10 -262144 -1 -1 1 1
;
#X floatatom 53 53 6 0 0 0 - - -, f 6;
#X msg 16 91 \$1 10000;
#X floatatom 51 129 5 0 0 0 - - -, f 5;
#X obj 733 445 writesf~ 2;
#X msg 787 361 open E:/Four.wav;
#X msg 787 381 start;
#X obj 735 314 *~;
#X obj 761 314 *~;
#X obj 786 316 hsl 128 15 0 1 0 0 empty empty empty -2 -8 0 10 -262144
-1 -1 3450 1;
#X obj 735 340 *~;
#X obj 760 340 *~;
#X obj 785 340 hsl 128 15 0 1 0 0 empty empty empty -2 -8 0 10 -262144
-1 -1 0 1;
#X obj 823 228 line;
#X msg 823 208 0 \, 0.6 10000;
#X obj 715 33 env~;
#X obj 715 55 - 100;
#X obj 764 32 env~;
#X obj 764 54 - 100;
#X obj 677 398 s~ vuL;
#X obj 720 398 s~ vuR;
#X obj 715 11 r~ vuL;
#X obj 764 10 r~ vuR;
#X obj 715 77 vu 17 120 empty empty -1 -8 0 10 -66577 -64 1 0;
#X obj 764 76 vu 15 120 empty empty -1 -8 0 10 -66577 -1 1 0;
#X msg 829 381 stop;
#X obj 51 358 readsf~;
#X msg 51 329 open E:/Rain.wav \, 1;
#X obj 51 387 *~;
#X obj 76 387 hsl 128 15 0 1 0 0 empty empty empty -2 -8 0 10 -262144
-1 -1 0 1;
#X obj 285 96 line;
#X msg 283 72 0 \, 0.6 10000;
#X msg 283 52 0.6 \, 0 10000;
#X obj 284 182 bng 15 250 50 0 empty empty empty 17 7 0 10 -262144
-1 -1;
#X floatatom 304 182 5 0 0 0 - - -, f 5;
#X obj 284 160 \$1 == 0;
#X obj 50 442 readsf~;
#X obj 50 471 *~;
#X obj 75 471 hsl 128 15 0 1 0 0 empty empty empty -2 -8 0 10 -262144
-1 -1 0 1;
#X msg 50 413 open E:/Fire.wav \, 1;
#X msg 823 188 0.6 \, 0 1e+006;
#X floatatom 823 248 9 0 0 0 - - -, f 9;
#X connect 0 0 1 0;
#X connect 1 0 2 0;
#X connect 2 0 3 0;
#X connect 3 0 18 0;
#X connect 5 0 1 1;
#X connect 6 0 1 2;
#X connect 7 0 2 1;
#X connect 8 0 3 1;
#X connect 9 0 10 0;
#X connect 10 0 11 0;
#X connect 11 0 12 0;
#X connect 12 0 19 0;
#X connect 13 0 10 1;
#X connect 14 0 10 2;
#X connect 15 0 11 1;
#X connect 16 0 12 1;
#X connect 17 0 19 1;
#X connect 17 0 18 1;
#X connect 18 0 56 0;
#X connect 19 0 57 0;
#X connect 20 0 4 0;
#X connect 20 0 76 0;
#X connect 21 0 4 1;
#X connect 21 0 77 0;
#X connect 22 0 23 0;
#X connect 23 0 49 0;
#X connect 23 0 52 0;
#X connect 24 0 23 1;
#X connect 25 0 22 0;
#X connect 25 0 61 0;
#X connect 26 0 24 0;
#X connect 27 0 28 0;
#X connect 27 0 29 0;
#X connect 28 0 24 0;
#X connect 29 0 26 0;
#X connect 30 0 31 0;
#X connect 31 0 50 0;
#X connect 31 0 53 0;
#X connect 32 0 31 1;
#X connect 33 0 30 0;
#X connect 33 0 64 0;
#X connect 34 0 32 0;
#X connect 35 0 36 0;
#X connect 35 0 37 0;
#X connect 36 0 32 0;
#X connect 37 0 34 0;
#X connect 38 0 39 0;
#X connect 38 0 27 0;
#X connect 38 0 45 0;
#X connect 39 0 38 0;
#X connect 39 0 35 0;
#X connect 39 0 42 0;
#X connect 40 0 38 1;
#X connect 41 0 39 1;
#X connect 42 0 44 0;
#X connect 43 0 25 0;
#X connect 44 0 43 0;
#X connect 45 0 47 0;
#X connect 46 0 33 0;
#X connect 47 0 46 0;
#X connect 48 0 21 1;
#X connect 48 0 20 1;
#X connect 49 0 55 0;
#X connect 50 0 55 1;
#X connect 51 0 50 1;
#X connect 51 0 49 1;
#X connect 52 0 20 0;
#X connect 53 0 21 0;
#X connect 54 0 53 1;
#X connect 54 0 52 1;
#X connect 55 0 20 0;
#X connect 55 1 21 0;
#X connect 56 0 4 0;
#X connect 56 0 76 0;
#X connect 57 0 4 1;
#X connect 57 0 77 0;
#X connect 58 0 57 1;
#X connect 58 0 56 1;
#X connect 59 0 23 0;
#X connect 60 0 61 1;
#X connect 61 0 59 0;
#X connect 62 0 31 0;
#X connect 63 0 64 1;
#X connect 64 0 62 0;
#X connect 65 0 17 0;
#X connect 66 0 65 0;
#X connect 67 0 71 0;
#X connect 67 0 72 0;
#X connect 68 0 67 0;
#X connect 69 0 68 0;
#X connect 70 0 68 1;
#X connect 71 0 66 0;
#X connect 74 0 73 0;
#X connect 75 0 73 0;
#X connect 76 0 79 0;
#X connect 77 0 80 0;
#X connect 78 0 77 1;
#X connect 78 0 76 1;
#X connect 79 0 73 0;
#X connect 79 0 88 0;
#X connect 80 0 73 1;
#X connect 80 0 89 0;
#X connect 81 0 80 1;
#X connect 81 0 79 1;
#X connect 82 0 110 0;
#X connect 83 0 82 0;
#X connect 84 0 85 0;
#X connect 85 0 92 0;
#X connect 85 0 93 1;
#X connect 86 0 87 0;
#X connect 87 0 93 0;
#X connect 87 0 92 1;
#X connect 90 0 84 0;
#X connect 91 0 86 0;
#X connect 94 0 73 0;
#X connect 95 0 97 0;
#X connect 95 1 96 0;
#X connect 96 0 95 0;
#X connect 97 0 88 0;
#X connect 97 0 73 0;
#X connect 97 0 89 0;
#X connect 97 0 73 1;
#X connect 97 0 4 0;
#X connect 97 0 4 1;
#X connect 98 0 97 1;
#X connect 99 0 104 0;
#X connect 100 0 99 0;
#X connect 101 0 99 0;
#X connect 104 0 102 0;
#X connect 104 0 103 0;
#X connect 105 0 106 0;
#X connect 105 1 108 0;
#X connect 106 0 88 0;
#X connect 106 0 89 0;
#X connect 106 0 4 0;
#X connect 106 0 4 1;
#X connect 106 0 73 0;
#X connect 106 0 73 1;
#X connect 107 0 106 1;
#X connect 108 0 105 0;
#X connect 109 0 82 0;
