#N canvas 0 0 1904 1026.09 10;
#X obj 777 298 readsf~ 2;
#X obj 534 538 dac~;
#X msg 777 280 open E:/Drums/Snare.wav \, 1;
#X msg 151 260 open E:/Drums/Kick.wav \, 1;
#X obj 201 122 metro;
#X obj 201 144 f;
#X obj 201 166 mod 8;
#X obj 494 89 hradio 18 0 0 8 empty empty empty 0 -8 0 10 -262144 -1
-1 6;
#X obj 229 144 + 1;
#X msg 173 144 0;
#X obj 201 102 tgl 15 0 empty empty empty 17 7 0 10 -262144 -1 -1 1
1;
#X obj 492 178 select 0 1 2 3 4 5 6 7;
#X obj 496 109 tgl 15 0 empty empty empty 17 7 0 10 -262144 -1 -1 1
1;
#X obj 622 109 tgl 15 0 empty empty empty 17 7 0 10 -262144 -1 -1 1
1;
#X obj 514 109 tgl 15 0 empty empty empty 17 7 0 10 -262144 -1 -1 1
1;
#X obj 532 109 tgl 15 0 empty empty empty 17 7 0 10 -262144 -1 -1 1
1;
#X obj 550 109 tgl 15 0 empty empty empty 17 7 0 10 -262144 -1 -1 1
1;
#X obj 568 109 tgl 15 0 empty empty empty 17 7 0 10 -262144 -1 -1 1
1;
#X obj 586 109 tgl 15 0 empty empty empty 17 7 0 10 -262144 -1 -1 1
1;
#X obj 604 109 tgl 15 0 empty empty empty 17 7 0 10 -262144 -1 -1 1
1;
#X obj 151 241 bang;
#X obj 357 225 spigot;
#X obj 400 225 spigot;
#X obj 443 225 spigot;
#X obj 486 225 spigot;
#X obj 529 225 spigot;
#X obj 572 225 spigot;
#X obj 615 225 spigot;
#X obj 658 225 spigot;
#X obj 496 127 tgl 15 0 empty empty empty 17 7 0 10 -262144 -1 -1 0
1;
#X obj 622 127 tgl 15 0 empty empty empty 17 7 0 10 -262144 -1 -1 0
1;
#X obj 514 127 tgl 15 0 empty empty empty 17 7 0 10 -262144 -1 -1 0
1;
#X obj 532 127 tgl 15 0 empty empty empty 17 7 0 10 -262144 -1 -1 1
1;
#X obj 550 127 tgl 15 0 empty empty empty 17 7 0 10 -262144 -1 -1 0
1;
#X obj 568 127 tgl 15 0 empty empty empty 17 7 0 10 -262144 -1 -1 1
1;
#X obj 586 127 tgl 15 0 empty empty empty 17 7 0 10 -262144 -1 -1 0
1;
#X obj 604 127 tgl 15 0 empty empty empty 17 7 0 10 -262144 -1 -1 1
1;
#X obj 358 246 spigot;
#X obj 401 246 spigot;
#X obj 444 246 spigot;
#X obj 487 246 spigot;
#X obj 530 246 spigot;
#X obj 573 246 spigot;
#X obj 616 246 spigot;
#X obj 659 246 spigot;
#X obj 777 262 bang;
#X obj 496 145 tgl 15 0 empty empty empty 17 7 0 10 -262144 -1 -1 0
1;
#X obj 622 145 tgl 15 0 empty empty empty 17 7 0 10 -262144 -1 -1 0
1;
#X obj 514 145 tgl 15 0 empty empty empty 17 7 0 10 -262144 -1 -1 0
1;
#X obj 532 145 tgl 15 0 empty empty empty 17 7 0 10 -262144 -1 -1 0
1;
#X obj 550 145 tgl 15 0 empty empty empty 17 7 0 10 -262144 -1 -1 0
1;
#X obj 568 145 tgl 15 0 empty empty empty 17 7 0 10 -262144 -1 -1 0
1;
#X obj 586 145 tgl 15 0 empty empty empty 17 7 0 10 -262144 -1 -1 0
1;
#X obj 604 145 tgl 15 0 empty empty empty 17 7 0 10 -262144 -1 -1 0
1;
#X obj 315 282 bang;
#X obj 358 265 spigot;
#X obj 401 265 spigot;
#X obj 444 265 spigot;
#X obj 487 265 spigot;
#X obj 530 265 spigot;
#X obj 573 265 spigot;
#X obj 616 265 spigot;
#X obj 659 265 spigot;
#X obj 496 163 tgl 15 0 empty empty empty 17 7 0 10 -262144 -1 -1 0
1;
#X obj 622 163 tgl 15 0 empty empty empty 17 7 0 10 -262144 -1 -1 0
1;
#X obj 514 163 tgl 15 0 empty empty empty 17 7 0 10 -262144 -1 -1 1
1;
#X obj 532 163 tgl 15 0 empty empty empty 17 7 0 10 -262144 -1 -1 0
1;
#X obj 550 163 tgl 15 0 empty empty empty 17 7 0 10 -262144 -1 -1 1
1;
#X obj 568 163 tgl 15 0 empty empty empty 17 7 0 10 -262144 -1 -1 0
1;
#X obj 586 163 tgl 15 0 empty empty empty 17 7 0 10 -262144 -1 -1 0
1;
#X obj 604 163 tgl 15 0 empty empty empty 17 7 0 10 -262144 -1 -1 0
1;
#X obj 358 284 spigot;
#X obj 401 284 spigot;
#X obj 444 284 spigot;
#X obj 487 284 spigot;
#X obj 530 284 spigot;
#X obj 573 284 spigot;
#X obj 616 284 spigot;
#X obj 659 284 spigot;
#X obj 507 334 bang;
#X obj 151 279 readsf~ 2;
#X obj 315 320 readsf~ 2;
#X obj 508 374 readsf~ 2;
#X msg 315 302 open E:/Drums/HiC.wav \, 1;
#X obj 468 91 f;
#X obj 468 109 f;
#X obj 468 128 f;
#X obj 468 146 f;
#X obj 468 76 bng 15 250 50 0 empty empty empty 17 7 0 10 -262144 -1
-1;
#X obj 203 78 bang;
#X msg 509 355 open E:/Drums/HiO.wav \, 1;
#X obj 532 509 *~;
#X obj 555 509 *~;
#X obj 578 509 vsl 20 50 0 1 0 0 empty empty empty 0 -9 0 10 -262144
-1 -1 4900 1;
#X floatatom 248 100 5 0 0 0 - - -, f 5;
#X connect 0 0 91 0;
#X connect 0 1 92 0;
#X connect 2 0 0 0;
#X connect 3 0 80 0;
#X connect 4 0 5 0;
#X connect 5 0 6 0;
#X connect 5 0 8 0;
#X connect 6 0 7 0;
#X connect 7 0 11 0;
#X connect 8 0 5 1;
#X connect 9 0 5 0;
#X connect 10 0 4 0;
#X connect 10 0 9 0;
#X connect 11 0 21 0;
#X connect 11 0 37 0;
#X connect 11 0 55 0;
#X connect 11 0 71 0;
#X connect 11 1 22 0;
#X connect 11 1 38 0;
#X connect 11 1 56 0;
#X connect 11 1 72 0;
#X connect 11 2 23 0;
#X connect 11 2 73 0;
#X connect 11 2 57 0;
#X connect 11 2 39 0;
#X connect 11 3 24 0;
#X connect 11 3 74 0;
#X connect 11 3 58 0;
#X connect 11 3 40 0;
#X connect 11 4 25 0;
#X connect 11 4 75 0;
#X connect 11 4 59 0;
#X connect 11 4 41 0;
#X connect 11 5 26 0;
#X connect 11 5 76 0;
#X connect 11 5 60 0;
#X connect 11 5 42 0;
#X connect 11 6 27 0;
#X connect 11 6 77 0;
#X connect 11 6 61 0;
#X connect 11 6 43 0;
#X connect 11 7 28 0;
#X connect 11 7 78 0;
#X connect 11 7 62 0;
#X connect 11 7 44 0;
#X connect 12 0 21 1;
#X connect 13 0 28 1;
#X connect 14 0 22 1;
#X connect 15 0 23 1;
#X connect 16 0 24 1;
#X connect 17 0 25 1;
#X connect 18 0 26 1;
#X connect 19 0 27 1;
#X connect 20 0 3 0;
#X connect 21 0 20 0;
#X connect 22 0 20 0;
#X connect 23 0 20 0;
#X connect 24 0 20 0;
#X connect 25 0 20 0;
#X connect 26 0 20 0;
#X connect 27 0 20 0;
#X connect 28 0 20 0;
#X connect 29 0 37 1;
#X connect 30 0 44 1;
#X connect 31 0 38 1;
#X connect 32 0 39 1;
#X connect 33 0 40 1;
#X connect 34 0 41 1;
#X connect 35 0 42 1;
#X connect 36 0 43 1;
#X connect 37 0 45 0;
#X connect 38 0 45 0;
#X connect 39 0 45 0;
#X connect 40 0 45 0;
#X connect 41 0 45 0;
#X connect 42 0 45 0;
#X connect 43 0 45 0;
#X connect 44 0 45 0;
#X connect 45 0 2 0;
#X connect 46 0 55 1;
#X connect 47 0 62 1;
#X connect 48 0 56 1;
#X connect 49 0 57 1;
#X connect 50 0 58 1;
#X connect 51 0 59 1;
#X connect 52 0 60 1;
#X connect 53 0 61 1;
#X connect 54 0 83 0;
#X connect 55 0 54 0;
#X connect 56 0 54 0;
#X connect 57 0 54 0;
#X connect 58 0 54 0;
#X connect 59 0 54 0;
#X connect 60 0 54 0;
#X connect 61 0 54 0;
#X connect 62 0 54 0;
#X connect 63 0 71 1;
#X connect 64 0 78 1;
#X connect 65 0 72 1;
#X connect 66 0 73 1;
#X connect 67 0 74 1;
#X connect 68 0 75 1;
#X connect 69 0 76 1;
#X connect 70 0 77 1;
#X connect 71 0 79 0;
#X connect 72 0 79 0;
#X connect 73 0 79 0;
#X connect 74 0 79 0;
#X connect 75 0 79 0;
#X connect 76 0 79 0;
#X connect 77 0 79 0;
#X connect 78 0 79 0;
#X connect 79 0 90 0;
#X connect 80 0 91 0;
#X connect 80 1 92 0;
#X connect 81 0 91 0;
#X connect 81 1 92 0;
#X connect 82 0 91 0;
#X connect 82 1 92 0;
#X connect 83 0 81 0;
#X connect 84 0 13 0;
#X connect 84 0 19 0;
#X connect 84 0 18 0;
#X connect 84 0 17 0;
#X connect 84 0 16 0;
#X connect 84 0 15 0;
#X connect 84 0 14 0;
#X connect 84 0 12 0;
#X connect 84 0 85 0;
#X connect 85 0 86 0;
#X connect 85 0 30 0;
#X connect 85 0 36 0;
#X connect 85 0 35 0;
#X connect 85 0 34 0;
#X connect 85 0 33 0;
#X connect 85 0 32 0;
#X connect 85 0 31 0;
#X connect 85 0 29 0;
#X connect 86 0 87 0;
#X connect 86 0 47 0;
#X connect 86 0 53 0;
#X connect 86 0 52 0;
#X connect 86 0 51 0;
#X connect 86 0 50 0;
#X connect 86 0 49 0;
#X connect 86 0 48 0;
#X connect 86 0 46 0;
#X connect 87 0 64 0;
#X connect 87 0 70 0;
#X connect 87 0 69 0;
#X connect 87 0 68 0;
#X connect 87 0 67 0;
#X connect 87 0 66 0;
#X connect 87 0 65 0;
#X connect 87 0 63 0;
#X connect 88 0 84 0;
#X connect 88 0 89 0;
#X connect 89 0 10 0;
#X connect 90 0 82 0;
#X connect 91 0 1 0;
#X connect 92 0 1 1;
#X connect 93 0 92 1;
#X connect 93 0 91 1;
#X connect 94 0 4 1;
